<?xml version="1.0" encoding="UTF-8" standalone="no"?>
<!DOCTYPE svg PUBLIC "-//W3C//DTD SVG 1.1//EN"
 "http://www.w3.org/Graphics/SVG/1.1/DTD/svg11.dtd">
<!-- Generated by graphviz version 2.40.1 (20161225.0304)
 -->
<!-- Title: csER Pages: 1 -->
<svg width="433pt" height="576pt"
 viewBox="0.00 0.00 433.33 576.00" xmlns="http://www.w3.org/2000/svg" xmlns:xlink="http://www.w3.org/1999/xlink">
<g id="graph0" class="graph" transform="scale(.7474 .7474) rotate(0) translate(4 766.7215)">
<title>csER</title>
<polygon fill="#ffffff" stroke="transparent" points="-4,4 -4,-766.7215 575.8189,-766.7215 575.8189,4 -4,4"/>
<text text-anchor="middle" x="285.9095" y="-10" font-family="Times,serif" font-size="20.00" fill="#000000">Entity Relationship Diagram Group 3</text>
<!-- CovidLocs -->
<g id="node1" class="node">
<title>CovidLocs</title>
<polygon fill="#ffa500" stroke="#000000" points="414.3588,-679.9413 336.3588,-679.9413 336.3588,-643.9413 414.3588,-643.9413 414.3588,-679.9413"/>
<text text-anchor="middle" x="375.3588" y="-658.2413" font-family="Times,serif" font-size="14.00" fill="#000000">CovidLocs</text>
</g>
<!-- State -->
<g id="node6" class="node">
<title>State</title>
<ellipse fill="#ffff00" stroke="#000000" cx="315.5268" cy="-606.6469" rx="28.6953" ry="18"/>
<text text-anchor="middle" x="315.5268" y="-602.9469" font-family="Times,serif" font-size="14.00" fill="#000000">State</text>
</g>
<!-- CovidLocs&#45;&#45;State -->
<g id="edge2" class="edge">
<title>CovidLocs&#45;&#45;State</title>
<path fill="none" stroke="#000000" d="M355.7675,-643.8358C347.997,-636.6546 339.1673,-628.4945 331.7625,-621.6514"/>
</g>
<!-- FIPS -->
<g id="node7" class="node">
<title>FIPS</title>
<ellipse fill="#ffff00" stroke="#000000" cx="311.2865" cy="-714.533" rx="29.4969" ry="18"/>
<text text-anchor="middle" x="311.2865" y="-710.833" font-family="Times,serif" font-size="14.00" fill="#000000">FIPS</text>
</g>
<!-- CovidLocs&#45;&#45;FIPS -->
<g id="edge3" class="edge">
<title>CovidLocs&#45;&#45;FIPS</title>
<path fill="none" stroke="#000000" d="M353.3087,-680.0404C345.345,-686.5772 336.4665,-693.8649 328.9297,-700.0512"/>
</g>
<!-- Pop -->
<g id="node8" class="node">
<title>Pop</title>
<ellipse fill="#ffff00" stroke="#000000" cx="366.4693" cy="-744.7215" rx="27" ry="18"/>
<text text-anchor="middle" x="366.4693" y="-741.0215" font-family="Times,serif" font-size="14.00" fill="#000000">Pop</text>
</g>
<!-- CovidLocs&#45;&#45;Pop -->
<g id="edge6" class="edge">
<title>CovidLocs&#45;&#45;Pop</title>
<path fill="none" stroke="#000000" d="M373.3859,-680.3129C371.9025,-694.1263 369.8806,-712.955 368.406,-726.6861"/>
</g>
<!-- RecordedIn -->
<g id="node21" class="node">
<title>RecordedIn</title>
<polygon fill="#00ff00" stroke="#000000" points="418.5537,-603.0444 343.3117,-585.0444 418.5537,-567.0444 493.7957,-585.0444 418.5537,-603.0444"/>
<text text-anchor="middle" x="418.5537" y="-581.3444" font-family="Times,serif" font-size="14.00" fill="#000000">RecordedIn</text>
</g>
<!-- CovidLocs&#45;&#45;RecordedIn -->
<g id="edge26" class="edge">
<title>CovidLocs&#45;&#45;RecordedIn</title>
<path fill="none" stroke="#000000" d="M385.5954,-643.7178C392.8802,-630.7492 402.5756,-613.489 409.5627,-601.0505"/>
</g>
<!-- uidl -->
<g id="node25" class="node">
<title>uidl</title>
<ellipse fill="#ffff00" stroke="#000000" cx="452.6758" cy="-683.2686" rx="27" ry="18"/>
<text text-anchor="middle" x="452.6758" y="-679.5686" font-family="Times,serif" font-size="14.00" fill="#000000">UID</text>
</g>
<!-- CovidLocs&#45;&#45;uidl -->
<g id="edge1" class="edge">
<title>CovidLocs&#45;&#45;uidl</title>
<path fill="none" stroke="#000000" d="M414.4703,-672.7299C418.9649,-673.9697 423.4514,-675.2073 427.6866,-676.3756"/>
</g>
<!-- lll -->
<g id="node27" class="node">
<title>lll</title>
<ellipse fill="#ffff00" stroke="#000000" cx="289.6967" cy="-657.0496" rx="37.8943" ry="18"/>
<text text-anchor="middle" x="289.6967" y="-653.3496" font-family="Times,serif" font-size="14.00" fill="#000000">LatLon</text>
</g>
<!-- CovidLocs&#45;&#45;lll -->
<g id="edge5" class="edge">
<title>CovidLocs&#45;&#45;lll</title>
<path fill="none" stroke="#000000" d="M336.2879,-659.7102C333.2873,-659.5388 330.2619,-659.3661 327.2713,-659.1953"/>
</g>
<!-- countyl -->
<g id="node30" class="node">
<title>countyl</title>
<ellipse fill="#ffff00" stroke="#000000" cx="426.0343" cy="-732.3705" rx="37.8943" ry="18"/>
<text text-anchor="middle" x="426.0343" y="-728.6705" font-family="Times,serif" font-size="14.00" fill="#000000">County</text>
</g>
<!-- CovidLocs&#45;&#45;countyl -->
<g id="edge4" class="edge">
<title>CovidLocs&#45;&#45;countyl</title>
<path fill="none" stroke="#000000" d="M388.409,-680.0786C396.151,-690.8385 405.9124,-704.405 413.5524,-715.0232"/>
</g>
<!-- CovidCases -->
<g id="node2" class="node">
<title>CovidCases</title>
<polygon fill="#ffa500" stroke="#000000" points="504.9183,-530.8665 421.9183,-530.8665 421.9183,-494.8665 504.9183,-494.8665 504.9183,-530.8665"/>
<text text-anchor="middle" x="463.4183" y="-509.1665" font-family="Times,serif" font-size="14.00" fill="#000000">CovidCases</text>
</g>
<!-- Date -->
<g id="node9" class="node">
<title>Date</title>
<ellipse fill="#ffff00" stroke="#000000" cx="543.8714" cy="-542.0555" rx="27.8951" ry="18"/>
<text text-anchor="middle" x="543.8714" y="-538.3555" font-family="Times,serif" font-size="14.00" fill="#000000">Date</text>
</g>
<!-- CovidCases&#45;&#45;Date -->
<g id="edge8" class="edge">
<title>CovidCases&#45;&#45;Date</title>
<path fill="none" stroke="#000000" d="M505.0588,-527.974C509.9666,-529.7546 514.8463,-531.525 519.4051,-533.179"/>
</g>
<!-- nCases -->
<g id="node10" class="node">
<title>nCases</title>
<ellipse fill="#ffff00" stroke="#000000" cx="400.6349" cy="-454.7879" rx="36.2938" ry="18"/>
<text text-anchor="middle" x="400.6349" y="-451.0879" font-family="Times,serif" font-size="14.00" fill="#000000">nCases</text>
</g>
<!-- CovidCases&#45;&#45;nCases -->
<g id="edge9" class="edge">
<title>CovidCases&#45;&#45;nCases</title>
<path fill="none" stroke="#000000" d="M443.8974,-494.8084C435.5462,-487.0831 425.8805,-478.1417 417.8063,-470.6725"/>
</g>
<!-- Type -->
<g id="node11" class="node">
<title>Type</title>
<ellipse fill="#ffff00" stroke="#000000" cx="534.5131" cy="-473.3149" rx="29.4969" ry="18"/>
<text text-anchor="middle" x="534.5131" y="-469.6149" font-family="Times,serif" font-size="14.00" fill="#000000">Type</text>
</g>
<!-- CovidCases&#45;&#45;Type -->
<g id="edge10" class="edge">
<title>CovidCases&#45;&#45;Type</title>
<path fill="none" stroke="#000000" d="M496.0526,-494.7113C501.6011,-491.6246 507.2449,-488.4848 512.4383,-485.5956"/>
</g>
<!-- uidc -->
<g id="node26" class="node">
<title>uidc</title>
<ellipse fill="#ffff00" stroke="#000000" cx="467.4931" cy="-432" rx="27" ry="18"/>
<text text-anchor="middle" x="467.4931" y="-428.3" font-family="Times,serif" font-size="14.00" fill="#000000">UID</text>
</g>
<!-- CovidCases&#45;&#45;uidc -->
<g id="edge7" class="edge">
<title>CovidCases&#45;&#45;uidc</title>
<path fill="none" stroke="#000000" d="M464.343,-494.5166C465.0145,-481.1891 465.9188,-463.2441 466.5862,-449.9987"/>
</g>
<!-- Hospitals -->
<g id="node3" class="node">
<title>Hospitals</title>
<polygon fill="#ffa500" stroke="#000000" points="153.8672,-529.4351 84.8672,-529.4351 84.8672,-493.4351 153.8672,-493.4351 153.8672,-529.4351"/>
<text text-anchor="middle" x="119.3672" y="-507.7351" font-family="Times,serif" font-size="14.00" fill="#000000">Hospitals</text>
</g>
<!-- OSHPD_ID -->
<g id="node12" class="node">
<title>OSHPD_ID</title>
<ellipse fill="#ffff00" stroke="#000000" cx="143.6908" cy="-590.9756" rx="54.6905" ry="18"/>
<text text-anchor="middle" x="143.6908" y="-587.2756" font-family="Times,serif" font-size="14.00" fill="#000000">OSHPD_ID</text>
</g>
<!-- Hospitals&#45;&#45;OSHPD_ID -->
<g id="edge15" class="edge">
<title>Hospitals&#45;&#45;OSHPD_ID</title>
<path fill="none" stroke="#000000" d="M124.8866,-529.4841C128.8673,-542.5014 134.2176,-559.9972 138.1933,-572.9981"/>
</g>
<!-- Name -->
<g id="node13" class="node">
<title>Name</title>
<ellipse fill="#ffff00" stroke="#000000" cx="190.228" cy="-561.6774" rx="32.4942" ry="18"/>
<text text-anchor="middle" x="190.228" y="-557.9774" font-family="Times,serif" font-size="14.00" fill="#000000">Name</text>
</g>
<!-- Hospitals&#45;&#45;Name -->
<g id="edge11" class="edge">
<title>Hospitals&#45;&#45;Name</title>
<path fill="none" stroke="#000000" d="M144.9496,-529.5737C153.1953,-535.4202 162.2141,-541.8148 170.0169,-547.3472"/>
</g>
<!-- Zip -->
<g id="node14" class="node">
<title>Zip</title>
<ellipse fill="#ffff00" stroke="#000000" cx="82.1768" cy="-582.8895" rx="27" ry="18"/>
<text text-anchor="middle" x="82.1768" y="-579.1895" font-family="Times,serif" font-size="14.00" fill="#000000">Zip</text>
</g>
<!-- Hospitals&#45;&#45;Zip -->
<g id="edge12" class="edge">
<title>Hospitals&#45;&#45;Zip</title>
<path fill="none" stroke="#000000" d="M109.9825,-529.4661C104.2156,-540.5461 96.8675,-554.664 91.1736,-565.6038"/>
</g>
<!-- llh -->
<g id="node28" class="node">
<title>llh</title>
<ellipse fill="#ffff00" stroke="#000000" cx="37.6967" cy="-488.8337" rx="37.8943" ry="18"/>
<text text-anchor="middle" x="37.6967" y="-485.1337" font-family="Times,serif" font-size="14.00" fill="#000000">LatLon</text>
</g>
<!-- Hospitals&#45;&#45;llh -->
<g id="edge14" class="edge">
<title>Hospitals&#45;&#45;llh</title>
<path fill="none" stroke="#000000" d="M84.7315,-501.8501C80.0362,-500.5507 75.2289,-499.2204 70.5658,-497.9299"/>
</g>
<!-- countyh -->
<g id="node31" class="node">
<title>countyh</title>
<ellipse fill="#ffff00" stroke="#000000" cx="38.7834" cy="-540.9923" rx="37.8943" ry="18"/>
<text text-anchor="middle" x="38.7834" y="-537.2923" font-family="Times,serif" font-size="14.00" fill="#000000">County</text>
</g>
<!-- Hospitals&#45;&#45;countyh -->
<g id="edge13" class="edge">
<title>Hospitals&#45;&#45;countyh</title>
<path fill="none" stroke="#000000" d="M84.7247,-524.1416C79.4351,-526.0817 74.013,-528.0705 68.8328,-529.9705"/>
</g>
<!-- PeMSLocs -->
<g id="node4" class="node">
<title>PeMSLocs</title>
<polygon fill="#ffa500" stroke="#000000" points="219.7811,-361.4171 141.7811,-361.4171 141.7811,-325.4171 219.7811,-325.4171 219.7811,-361.4171"/>
<text text-anchor="middle" x="180.7811" y="-339.7171" font-family="Times,serif" font-size="14.00" fill="#000000">PeMSLocs</text>
</g>
<!-- Route -->
<g id="node15" class="node">
<title>Route</title>
<ellipse fill="#ffff00" stroke="#000000" cx="105.3013" cy="-319.3443" rx="32.4942" ry="18"/>
<text text-anchor="middle" x="105.3013" y="-315.6443" font-family="Times,serif" font-size="14.00" fill="#000000">Route</text>
</g>
<!-- PeMSLocs&#45;&#45;Route -->
<g id="edge17" class="edge">
<title>PeMSLocs&#45;&#45;Route</title>
<path fill="none" stroke="#000000" d="M141.7146,-330.9576C138.9808,-330.0857 136.2562,-329.2167 133.5984,-328.3691"/>
</g>
<!-- Dir -->
<g id="node16" class="node">
<title>Dir</title>
<ellipse fill="#ffff00" stroke="#000000" cx="253.6399" cy="-373.0207" rx="27" ry="18"/>
<text text-anchor="middle" x="253.6399" y="-369.3207" font-family="Times,serif" font-size="14.00" fill="#000000">Dir</text>
</g>
<!-- PeMSLocs&#45;&#45;Dir -->
<g id="edge18" class="edge">
<title>PeMSLocs&#45;&#45;Dir</title>
<path fill="none" stroke="#000000" d="M220.1959,-359.4319C223.683,-360.8487 227.1333,-362.2507 230.418,-363.5853"/>
</g>
<!-- Lane -->
<g id="node17" class="node">
<title>Lane</title>
<ellipse fill="#ffff00" stroke="#000000" cx="236.2128" cy="-293.3477" rx="28.6953" ry="18"/>
<text text-anchor="middle" x="236.2128" y="-289.6477" font-family="Times,serif" font-size="14.00" fill="#000000">Lane</text>
</g>
<!-- PeMSLocs&#45;&#45;Lane -->
<g id="edge19" class="edge">
<title>PeMSLocs&#45;&#45;Lane</title>
<path fill="none" stroke="#000000" d="M200.7932,-325.3409C206.9955,-319.7386 213.7568,-313.6314 219.6941,-308.2684"/>
</g>
<!-- RecordedAt -->
<g id="node22" class="node">
<title>RecordedAt</title>
<polygon fill="#00ff00" stroke="#000000" points="154.5767,-273.1158 77.1578,-255.1158 154.5767,-237.1158 231.9957,-255.1158 154.5767,-273.1158"/>
<text text-anchor="middle" x="154.5767" y="-251.4158" font-family="Times,serif" font-size="14.00" fill="#000000">RecordedAt</text>
</g>
<!-- PeMSLocs&#45;&#45;RecordedAt -->
<g id="edge28" class="edge">
<title>PeMSLocs&#45;&#45;RecordedAt</title>
<path fill="none" stroke="#000000" d="M175.3515,-325.121C170.7343,-309.5622 164.1542,-287.3893 159.6438,-272.1903"/>
</g>
<!-- CloseBy -->
<g id="node23" class="node">
<title>CloseBy</title>
<polygon fill="#00ff00" stroke="#000000" points="168.5096,-454.0354 108.5181,-436.0354 168.5096,-418.0354 228.501,-436.0354 168.5096,-454.0354"/>
<text text-anchor="middle" x="168.5096" y="-432.3354" font-family="Times,serif" font-size="14.00" fill="#000000">CloseBy</text>
</g>
<!-- PeMSLocs&#45;&#45;CloseBy -->
<g id="edge30" class="edge">
<title>PeMSLocs&#45;&#45;CloseBy</title>
<path fill="none" stroke="#000000" d="M178.3566,-361.7155C176.1634,-378.2691 172.9567,-402.4714 170.8045,-418.7148"/>
</g>
<!-- llp -->
<g id="node29" class="node">
<title>llp</title>
<ellipse fill="#ffff00" stroke="#000000" cx="269.6287" cy="-328.7485" rx="37.8943" ry="18"/>
<text text-anchor="middle" x="269.6287" y="-325.0485" font-family="Times,serif" font-size="14.00" fill="#000000">LatLon</text>
</g>
<!-- PeMSLocs&#45;&#45;llp -->
<g id="edge20" class="edge">
<title>PeMSLocs&#45;&#45;llp</title>
<path fill="none" stroke="#000000" d="M220.0096,-336.9406C224.6582,-336.1731 229.3838,-335.3929 233.9789,-334.6342"/>
</g>
<!-- sidl -->
<g id="node32" class="node">
<title>sidl</title>
<ellipse fill="#ffff00" stroke="#000000" cx="111.0048" cy="-361.5994" rx="27" ry="18"/>
<text text-anchor="middle" x="111.0048" y="-357.8994" font-family="Times,serif" font-size="14.00" fill="#000000">SID</text>
</g>
<!-- PeMSLocs&#45;&#45;sidl -->
<g id="edge16" class="edge">
<title>PeMSLocs&#45;&#45;sidl</title>
<path fill="none" stroke="#000000" d="M141.4067,-353.6773C139.6756,-354.1283 137.9595,-354.5755 136.2758,-355.0143"/>
</g>
<!-- PeMSRecs -->
<g id="node5" class="node">
<title>PeMSRecs</title>
<polygon fill="#ffa500" stroke="#000000" points="168.5133,-191.525 90.5133,-191.525 90.5133,-155.525 168.5133,-155.525 168.5133,-191.525"/>
<text text-anchor="middle" x="129.5133" y="-169.825" font-family="Times,serif" font-size="14.00" fill="#000000">PeMSRecs</text>
</g>
<!-- Timestamp -->
<g id="node18" class="node">
<title>Timestamp</title>
<ellipse fill="#ffff00" stroke="#000000" cx="205.2622" cy="-129.1122" rx="51.1914" ry="18"/>
<text text-anchor="middle" x="205.2622" y="-125.4122" font-family="Times,serif" font-size="14.00" fill="#000000">Timestamp</text>
</g>
<!-- PeMSRecs&#45;&#45;Timestamp -->
<g id="edge24" class="edge">
<title>PeMSRecs&#45;&#45;Timestamp</title>
<path fill="none" stroke="#000000" d="M160.3233,-155.4606C166.3853,-151.9063 172.6977,-148.2053 178.6092,-144.7393"/>
</g>
<!-- Flow -->
<g id="node19" class="node">
<title>Flow</title>
<ellipse fill="#ffff00" stroke="#000000" cx="148.0091" cy="-96" rx="29.4969" ry="18"/>
<text text-anchor="middle" x="148.0091" y="-92.3" font-family="Times,serif" font-size="14.00" fill="#000000">Flow</text>
</g>
<!-- PeMSRecs&#45;&#45;Flow -->
<g id="edge22" class="edge">
<title>PeMSRecs&#45;&#45;Flow</title>
<path fill="none" stroke="#000000" d="M133.8966,-155.1527C136.8663,-142.705 140.7717,-126.3356 143.7211,-113.973"/>
</g>
<!-- Speed -->
<g id="node20" class="node">
<title>Speed</title>
<ellipse fill="#ffff00" stroke="#000000" cx="74.9021" cy="-114.2457" rx="33.2948" ry="18"/>
<text text-anchor="middle" x="74.9021" y="-110.5457" font-family="Times,serif" font-size="14.00" fill="#000000">Speed</text>
</g>
<!-- PeMSRecs&#45;&#45;Speed -->
<g id="edge23" class="edge">
<title>PeMSRecs&#45;&#45;Speed</title>
<path fill="none" stroke="#000000" d="M112.8314,-155.4172C105.5542,-147.5179 97.0842,-138.3239 89.9966,-130.6304"/>
</g>
<!-- sidr -->
<g id="node33" class="node">
<title>sidr</title>
<ellipse fill="#ffff00" stroke="#000000" cx="42.0237" cy="-169.0043" rx="27" ry="18"/>
<text text-anchor="middle" x="42.0237" y="-165.3043" font-family="Times,serif" font-size="14.00" fill="#000000">SID</text>
</g>
<!-- PeMSRecs&#45;&#45;sidr -->
<g id="edge21" class="edge">
<title>PeMSRecs&#45;&#45;sidr</title>
<path fill="none" stroke="#000000" d="M90.3746,-171.5027C83.1861,-171.1313 75.8297,-170.7511 69.0937,-170.4031"/>
</g>
<!-- RecordedIn&#45;&#45;CovidCases -->
<g id="edge27" class="edge">
<title>RecordedIn&#45;&#45;CovidCases</title>
<path fill="none" stroke="#000000" d="M428.5106,-569.0258C435.5324,-557.7292 444.9454,-542.5856 452.2273,-530.8706"/>
</g>
<!-- RecordedAt&#45;&#45;PeMSRecs -->
<g id="edge29" class="edge">
<title>RecordedAt&#45;&#45;PeMSRecs</title>
<path fill="none" stroke="#000000" d="M149.3836,-238.2102C145.1968,-224.5806 139.3226,-205.458 135.0475,-191.541"/>
</g>
<!-- CloseBy&#45;&#45;Hospitals -->
<g id="edge31" class="edge">
<title>CloseBy&#45;&#45;Hospitals</title>
<path fill="none" stroke="#000000" d="M158.5649,-451.2937C150.6559,-463.4285 139.5682,-480.4406 131.2025,-493.2761"/>
</g>
<!-- Distance -->
<g id="node24" class="node">
<title>Distance</title>
<ellipse fill="#ffff00" stroke="#000000" cx="248.3629" cy="-471.3939" rx="42.4939" ry="18"/>
<text text-anchor="middle" x="248.3629" y="-467.6939" font-family="Times,serif" font-size="14.00" fill="#000000">Distance</text>
</g>
<!-- CloseBy&#45;&#45;Distance -->
<g id="edge25" class="edge">
<title>CloseBy&#45;&#45;Distance</title>
<path fill="none" stroke="#000000" d="M192.9021,-446.8363C201.158,-450.4919 210.4637,-454.6124 219.0607,-458.4191"/>
</g>
</g>
</svg>
